<?xml version="1.0" standalone="no"?>
<!DOCTYPE svg PUBLIC "-//W3C//DTD SVG 20010904//EN"
 "http://www.w3.org/TR/2001/REC-SVG-20010904/DTD/svg10.dtd">
<svg version="1.0" xmlns="http://www.w3.org/2000/svg"
 width="602.000000pt" height="330.000000pt" viewBox="0 0 602.000000 330.000000"
 preserveAspectRatio="xMidYMid meet">

<g transform="translate(0.000000,330.000000) scale(0.100000,-0.100000)"
fill="#000000" stroke="none">
<path d="M4878 2667 c-40 -17 -229 -208 -226 -226 6 -30 37 -22 80 18 l42 41
78 -77 78 -78 -262 -262 -263 -263 -77 77 -78 78 187 187 c187 188 188 188
168 208 -20 20 -21 19 -563 -518 -298 -296 -542 -543 -542 -548 0 -6 -7 -62
-15 -124 -12 -93 -13 -117 -2 -127 10 -11 35 -10 132 2 l120 15 617 617 618
618 22 -23 23 -22 -89 -89 c-77 -77 -88 -92 -76 -105 7 -9 18 -16 24 -16 17 0
206 193 206 211 0 8 -13 28 -30 44 -16 16 -30 33 -30 38 0 5 15 27 34 48 61
66 70 144 26 216 -37 61 -135 90 -202 60z m143 -76 c24 -24 29 -38 29 -76 0
-40 -5 -51 -40 -88 l-39 -42 -78 78 -78 78 42 39 c37 35 48 40 88 40 38 0 52
-5 76 -29z m-733 -734 c39 -40 72 -75 72 -78 0 -4 -477 -483 -576 -578 -5 -6
-154 140 -154 151 0 8 572 577 580 578 3 0 38 -33 78 -73z m-566 -718 c-11
-12 -47 -21 -102 -27 -47 -6 -86 -10 -87 -8 -7 7 26 178 37 191 12 14 22 8 92
-62 74 -73 77 -78 60 -94z"/>
<path d="M2878 1997 c-10 -11 -13 -74 -11 -305 2 -289 2 -292 -18 -281 -52 27
-183 240 -235 381 -68 185 -85 209 -134 193 -25 -8 -40 -61 -40 -140 0 -33 -7
-132 -14 -221 -8 -88 -18 -232 -22 -321 -7 -160 -7 -161 16 -173 55 -30 95 39
72 125 -8 31 -6 78 9 210 10 94 23 190 27 215 l8 45 28 -55 c72 -141 214 -335
271 -370 23 -14 35 -29 35 -44 0 -36 28 -68 58 -64 24 3 28 9 41 67 11 53 11
68 0 85 -9 16 -12 64 -9 196 8 361 7 414 -13 443 -19 29 -48 35 -69 14z"/>
<path d="M1019 1961 c-33 -33 -39 -45 -39 -81 0 -23 -7 -81 -15 -129 -8 -47
-29 -173 -46 -279 -17 -106 -37 -205 -45 -220 -20 -40 -17 -69 10 -87 17 -11
30 -13 48 -6 36 13 45 30 52 96 12 99 76 489 84 508 10 25 96 -198 157 -406
44 -151 58 -177 98 -177 36 0 57 22 88 88 41 92 263 496 266 486 7 -27 63
-498 65 -549 3 -55 5 -60 31 -69 38 -14 60 1 71 48 8 28 3 77 -17 204 -31 187
-47 328 -47 417 0 118 -36 174 -92 148 -24 -11 -36 -32 -224 -376 -64 -117
-119 -216 -124 -220 -4 -5 -20 29 -35 75 -41 124 -171 470 -197 522 -12 25
-28 46 -36 46 -8 0 -32 -17 -53 -39z"/>
<path d="M1975 1658 c-18 -42 -45 -242 -45 -335 0 -61 3 -74 21 -86 11 -8 30
-12 42 -10 12 3 66 51 120 106 l97 99 0 -37 c0 -44 -29 -369 -36 -402 -4 -20
-8 -21 -30 -13 -14 6 -59 10 -100 10 -97 0 -189 -30 -349 -115 -175 -92 -227
-102 -262 -49 -15 23 -13 28 31 118 55 111 58 146 17 187 -16 16 -37 29 -45
29 -38 0 -137 -44 -308 -138 -289 -158 -371 -194 -486 -217 -31 -6 -32 -8 -26
-43 9 -51 8 -50 56 -41 104 19 234 76 453 199 213 119 295 157 295 134 0 -4
-18 -39 -40 -79 -31 -56 -40 -83 -40 -120 0 -92 61 -145 169 -145 57 0 72 6
198 71 76 40 167 83 203 96 77 30 179 35 224 13 29 -15 30 -17 27 -80 -1 -35
-9 -76 -17 -91 -10 -20 -11 -35 -5 -52 25 -65 123 -37 106 30 -7 31 -7 112 1
125 3 5 20 0 37 -11 206 -126 647 -70 1092 139 50 24 92 44 94 46 8 7 -28 74
-39 74 -6 0 -38 -14 -72 -31 -109 -55 -286 -119 -424 -154 -300 -76 -470 -74
-614 7 -30 17 -56 32 -58 33 -1 1 9 105 24 231 33 289 36 409 11 447 -23 36
-51 34 -78 -5 -13 -18 -61 -80 -108 -138 -60 -72 -87 -99 -89 -87 -2 9 8 71
22 137 31 144 31 135 6 160 -30 30 -58 25 -75 -12z"/>
<path d="M3224 1656 c-40 -18 -94 -82 -134 -160 -25 -50 -32 -77 -33 -123 -1
-109 59 -193 138 -193 41 0 124 40 163 79 104 104 120 248 39 346 -49 60 -110
78 -173 51z m103 -94 c16 -10 33 -57 33 -91 0 -80 -69 -179 -137 -196 -63 -15
-93 83 -52 169 43 93 113 145 156 118z"/>
</g>
</svg>
